<svg xmlns="http://www.w3.org/2000/svg" id="Layer_3" height="512" viewBox="0 0 64 64" width="512"><g><path d="m62.707 53.293-3.707-3.707v-29.586c0-2.757-2.243-5-5-5h-3v-9c0-2.757-2.243-5-5-5h-40c-2.757 0-5 2.243-5 5v32c0 2.414 1.721 4.434 4 4.899v6.687l-3.707 3.707c-.188.187-.293.442-.293.707v4c0 2.757 2.243 5 5 5h52c2.757 0 5-2.243 5-5v-4c0-.265-.105-.52-.293-.707zm-5.121-2.293 2 2h-55.172l2-2zm-3.586-34c1.654 0 3 1.346 3 3v29h-50v-6h2v3c0 .552.447 1 1 1h44c.553 0 1-.448 1-1v-26c0-.552-.447-1-1-1h-3v-2zm-3 21v-17h2v24h-42v-2h35c2.757 0 5-2.243 5-5zm-45-35h40c1.654 0 3 1.346 3 3v3h-46v-3c0-1.654 1.346-3 3-3zm-3 10v-2h6v2zm8-2h6v2h-6zm8 0h6v2h-6zm8 0h6v2h-6zm8 0h6v1c0 .551-.448 1-1 1h-5zm-32 27v-23h37c1.654 0 3-1.346 3-3v-1h6v27c0 1.654-1.346 3-3 3h-40c-1.654 0-3-1.346-3-3zm55 23h-52c-1.654 0-3-1.346-3-3v-3h58v3c0 1.654-1.346 3-3 3z"></path><path d="m43 5h2v2h-2z"></path><path d="m39 5h2v2h-2z"></path><path d="m35 5h2v2h-2z"></path><path d="m9.556 36c.694 1.19 1.97 2 3.444 2s2.75-.81 3.444-2h6.113c.694 1.19 1.97 2 3.444 2s2.75-.81 3.444-2h4.555c.553 0 1-.448 1-1v-4c0-2.134-1.35-3.946-3.235-4.662l-1.852-2.964c-2.103-3.365-5.728-5.374-9.696-5.374-3.58 0-7 1.71-9.146 4.574l-2.82 3.759c-1.894.713-3.251 2.528-3.251 4.667v4c0 .552.447 1 1 1zm3.444 0c-1.103 0-2-.897-2-2s.897-2 2-2 2 .897 2 2-.897 2-2 2zm13 0c-1.103 0-2-.897-2-2s.897-2 2-2 2 .897 2 2-.897 2-2 2zm2.218-11.566.978 1.566h-8.196v-5.951c2.961.243 5.622 1.833 7.218 4.385zm-15.548-.661c1.526-2.035 3.832-3.358 6.33-3.687v5.914h-8zm-5.67 7.227c0-1.654 1.346-3 3-3h20c1.654 0 3 1.346 3 3v3h-3c0-2.206-1.794-4-4-4s-4 1.794-4 4h-5c0-2.206-1.794-4-4-4s-4 1.794-4 4h-2z"></path><path d="m39.508 32.747-2.403 4.805c-.192.385-.117.85.188 1.154.306.306.77.378 1.154.188l3.553-1.776 3.553 1.776c.142.071.295.106.447.106.259 0 .515-.101.707-.293.305-.304.38-.769.188-1.154l-2.403-4.805c2.025-.64 3.508-2.514 3.508-4.748 0-2.757-2.243-5-5-5h-2c-2.757 0-5 2.243-5 5 0 2.234 1.483 4.108 3.508 4.747zm2.939 2.358c-.14-.07-.294-.105-.447-.105s-.307.035-.447.105l-1.316.659 1.763-3.528 1.764 3.528zm-1.447-10.105h2c1.654 0 3 1.346 3 3 0 1.453-1.038 2.666-2.412 2.941l-.694-1.388c-.34-.678-1.449-.678-1.789 0l-.694 1.388c-1.373-.275-2.411-1.488-2.411-2.941 0-1.654 1.346-3 3-3z"></path></g></svg>