<svg xmlns="http://www.w3.org/2000/svg" viewBox="0 0 512 512" width="512" height="512"><g id="Outline"><path d="M192,96H80a63.694,63.694,0,0,0-35.789,10.935l8.957,13.258A47.752,47.752,0,0,1,80,112H192a48,48,0,0,1,0,96H80a48,48,0,0,1-36.785-78.837L30.959,118.876A64.06,64.06,0,0,0,16,160V352a64.072,64.072,0,0,0,64,64H192a64.2,64.2,0,0,0,61.639-46.723l-15.409-4.311A48.144,48.144,0,0,1,192,400H80a48.054,48.054,0,0,1-48-48V330.264A63.848,63.848,0,0,0,80,352H192a63.848,63.848,0,0,0,48-21.736V352h16V160A64.072,64.072,0,0,0,192,96Zm48,192a48.054,48.054,0,0,1-48,48H80a48.054,48.054,0,0,1-48-48V266.264A63.848,63.848,0,0,0,80,288H192a63.848,63.848,0,0,0,48-21.736Zm0-64a48.054,48.054,0,0,1-48,48H80a48.054,48.054,0,0,1-48-48V202.264A63.848,63.848,0,0,0,80,224H192a63.848,63.848,0,0,0,48-21.736ZM64,160a15.9,15.9,0,0,0,.911,5.326l-15.08,5.348A32,32,0,0,1,80,128v16A16.019,16.019,0,0,0,64,160Zm64,80h16v16H128Zm32,0h16v16H160Zm-64,0h16v16H96Zm32,64h16v16H128Zm32,0h16v16H160Zm-64,0h16v16H96Zm32,80V368h16v16Zm32,0V368h16v16Zm-64,0V368h16v16ZM488,16H344a8,8,0,0,0-8,8V53.667h16V40.357l30.382,23.63L352,98.709V67H336v53a8,8,0,0,0,8,8H488a8,8,0,0,0,8-8V24A8,8,0,0,0,488,16ZM449.618,63.987,480,40.357V98.709ZM416,69.865,367.316,32h97.368Zm-4.911,16.45a8,8,0,0,0,9.822,0l16.057-12.489L470.37,112H361.63l33.4-38.174ZM296,72h24V88H304V208h16v16H304V424h16v16H296a8,8,0,0,1-8-8V224H272V208h16V80A8,8,0,0,1,296,72Zm192,80H344a8,8,0,0,0-8,8V272a8,8,0,0,0,8,8H488a8,8,0,0,0,8-8V160A8,8,0,0,0,488,152Zm-8,16v63.354l-27-21.6a8,8,0,0,0-10,0L407.57,238.1l-19.132-12.755a8,8,0,0,0-8.554-.2L352,241.87V168Zm0,96H352v-3.471l31.774-19.064,19.788,13.191a8,8,0,0,0,9.436-.409l35-28,32,25.6Zm-80-40a24,24,0,1,0-24-24A24.027,24.027,0,0,0,400,224Zm0-32a8,8,0,1,1-8,8A8.009,8.009,0,0,1,400,192Zm88,112H344a8,8,0,0,0-8,8V488a8,8,0,0,0,8,8H488a8,8,0,0,0,8-8V453.667H480V480H352V320h80v40a8,8,0,0,0,8,8h40v71.667h16V312A8,8,0,0,0,488,304Zm-40,48V331.313L468.687,352Zm11.314-32H480v20.686ZM416,352v16H368V352Zm48,48H368V384h96Zm0,32H368V416h96Zm-96,16h96v16H368Z"></path></g></svg>