<svg xmlns="http://www.w3.org/2000/svg" id="Layer_1" height="512" viewBox="0 0 512 512" width="512" data-name="Layer 1"><path d="m317.752 312h-194.325a6 6 0 0 0 0 12h194.325a6 6 0 0 0 0-12z"></path><path d="m317.752 343h-194.325a6 6 0 0 0 0 12h194.325a6 6 0 0 0 0-12z"></path><path d="m197.752 374h-74.325a6 6 0 0 0 0 12h74.325a6 6 0 0 0 0-12z"></path><path d="m366.423 454.04a6 6 0 0 0 8.389.094l33.2-31.749a6 6 0 1 0 -8.293-8.674l-28.959 27.695-13.91-13.906a6 6 0 1 0 -8.486 8.485z"></path><path d="m323.16 285a5.736 5.736 0 0 0 5.84-5.846l.06-42.576a44.854 44.854 0 0 0 -31.038-39.266l-31.774-10.734a24.13 24.13 0 0 0 16.752-22.813v-5.546a6.039 6.039 0 0 0 -5.271-5.953c-.115-.015-10.729-1.618-13.729-7.861v-4.9a16.553 16.553 0 0 0 3.9.528c.189 0 .385.008.572.008 9.6 0 17.066-7.078 17.9-7.9a6 6 0 0 0 -5.343-10.165 2.733 2.733 0 0 1 -1.4-.036c-.619-.442-.629-1.918-1.629-2.89v-12.41a57 57 0 1 0 -114 0v6.905a40.906 40.906 0 0 0 1.968 12.661 13.416 13.416 0 0 0 4.615 20.193c-2.282 4.632-8.71 5.746-9.58 5.872a5.817 5.817 0 0 0 -5 5.948v5.546a23.817 23.817 0 0 0 18.477 23.362l-30.234 10.161a45.066 45.066 0 0 0 -31.226 39.289l-.02 42.577a5.819 5.819 0 0 0 5.938 5.846zm-24.16-42.125a46.464 46.464 0 0 1 8.233-26.114 32.459 32.459 0 0 1 7.951 12.3 25.17 25.17 0 0 1 1.816 8.28v35.659h-18zm-109 18.025-13.407-17.225 7.313-6.132a6 6 0 0 0 1.1-7.968l-6.458-9.59 11.452-13.085zm50 12.1h-38v-58.825a48.639 48.639 0 0 0 38-.007zm0-72.227a36.893 36.893 0 0 1 -38 0v-12.7a44.242 44.242 0 0 0 16.231 3.052 43.362 43.362 0 0 0 21.769-5.617zm18.21 36.772 7.212 6.132-13.422 17.139v-53.93l11.476 13.091-6.444 9.6a6.011 6.011 0 0 0 1.178 7.968zm39.118-27.554a58.448 58.448 0 0 0 -10.328 32.884v30.125h-29.143l20.713-26.614a5.953 5.953 0 0 0 -.891-8.242l-7.611-6.345 6.049-8.916a5.993 5.993 0 0 0 -.434-7.292l-16.153-18.621zm-30.965-48.573c1.645.7 3.637 1.228 4.637 1.629v.718a12.016 12.016 0 0 1 -10.121 11.806c-2.6.4-5.665.847-8.59 1.533l-.289.039v-1.132c5-4.814 7.809-10.554 9.806-16.885a33.894 33.894 0 0 0 4.557 2.292zm-90.363-54.778a45 45 0 1 1 90 0v12.877a5.086 5.086 0 0 0 .062.65 22.093 22.093 0 0 0 3.184 7.823 6.816 6.816 0 0 1 -5.471-1.755 17.974 17.974 0 0 0 -15.981-15.213 47.276 47.276 0 0 1 -40.3-32.438 30.551 30.551 0 0 1 -1.03-3.916 6 6 0 0 0 -11.852 1.832 40.039 40.039 0 0 0 1.469 5.757 58.747 58.747 0 0 0 4.7 10.774 54.3 54.3 0 0 0 -13.459 6.5c-4.95 3.274-9.323 7.753-11.323 12.912zm.608 26.36h1.986a6.027 6.027 0 0 0 6-6.031 20.818 20.818 0 0 1 9.324-17.411 41.846 41.846 0 0 1 14.316-6.1 59.506 59.506 0 0 0 38.34 19.5 6.023 6.023 0 0 1 5.426 6.028v16.419a33.5 33.5 0 1 1 -67 0v-3.572c0-3.314-3.092-5.833-6.406-5.833h-1.986a1.5 1.5 0 0 1 0-3zm-8.608 30.765v-.85a34.908 34.908 0 0 0 6.976-3.639 45.5 45.5 0 0 0 10.082 17.348c-2.178-.349-4.325-.686-6.851-1.017a11.822 11.822 0 0 1 -10.207-11.842zm14.667 33.19-16.243 18.628a6 6 0 0 0 -.444 7.31l6.048 8.925-7.61 6.365a5.9 5.9 0 0 0 -.891 8.2l20.712 26.617h-29.239v-30.125a58.21 58.21 0 0 0 -10.168-33.011zm-57.667 40.381a22.688 22.688 0 0 1 1.04-5.919 32.431 32.431 0 0 1 8.833-14.882 46.208 46.208 0 0 1 8.127 26.34v30.125h-18z"></path><path d="m241.638 105.305a6 6 0 1 0 4.195-11.243c-15.388-5.742-18.768-21.042-18.916-21.753a6 6 0 0 0 -11.769 2.348c.181.916 4.671 22.506 26.49 30.648z"></path><path d="m68.145 440h41.855v28.619a6.607 6.607 0 0 0 6.31 6.381h203.316a71.581 71.581 0 1 0 100.374-99.2v-275.174a5.415 5.415 0 0 0 -5.667-5.626h-30.333v-5.931a6.238 6.238 0 0 0 -2.055-4.309l-79.195-76.839a6.518 6.518 0 0 0 -4.289-1.921h-230.316a6.534 6.534 0 0 0 -6.145 6.46v421.694a6 6 0 0 0 6.145 5.846zm53.855 23v-23h184.9a71.037 71.037 0 0 0 5.916 23zm262-356h24v261.808a71.059 71.059 0 0 0 -24-6.25zm53.855 326.923a59.617 59.617 0 1 1 -59.616-59.617 59.685 59.685 0 0 1 59.616 59.617zm-133.855-407.296 58.883 56.373h-58.883zm-230-8.627h218v71.223c0 3.314 3.147 5.777 6.461 5.777h73.539v267.594a71.711 71.711 0 0 0 -65.114 65.406h-232.886z"></path><path d="m93 34.381a6 6 0 0 0 -6 6v3.6a6 6 0 1 0 12 0v-3.6a6 6 0 0 0 -6-6z"></path><path d="m93 58.062a6 6 0 0 0 -6 6v110.506a6 6 0 0 0 12 0v-110.506a6 6 0 0 0 -6-6z"></path></svg>