<svg xmlns="http://www.w3.org/2000/svg" viewBox="0 0 512 512" width="512" height="512"><g id="outline"><path d="M466,40H46A30.034,30.034,0,0,0,16,70V354a30.034,30.034,0,0,0,30,30H207.355a49.556,49.556,0,0,1-13.983,27.313L180.686,424H176a16.019,16.019,0,0,0-16,16v24a8,8,0,0,0,8,8H344a8,8,0,0,0,8-8V440a16.019,16.019,0,0,0-16-16h-4.686l-12.686-12.687A49.556,49.556,0,0,1,304.645,384H356.6l21.442,22.1c.01.01.022.019.033.03l38.965,40.151a31.995,31.995,0,1,0,45.926-44.558L445.767,384H466a30.034,30.034,0,0,0,30-30V70A30.034,30.034,0,0,0,466,40ZM32,236.31l48.764,21.673a24,24,0,1,0,46.507,11.886l20.437-7.432a111.307,111.307,0,0,0,28.066,50.1q3.851,3.967,7.992,7.467H32ZM96,264a8,8,0,1,1,8,8A8.009,8.009,0,0,1,96,264Zm134.117-24a71.835,71.835,0,0,0,5.33,20.363l3.314,7.726A40.143,40.143,0,0,1,216.805,240Zm-13.312-16a40.145,40.145,0,0,1,21.956-28.089l-3.316,7.732A71.817,71.817,0,0,0,230.117,224ZM256,288a56.071,56.071,0,0,0,55.745-50.732l39.158-17.8a95.948,95.948,0,0,1-188.061,37.465l38.253-13.91A56.091,56.091,0,0,0,256,288Zm-9.768-64a55.77,55.77,0,0,1,3.92-14.057L256,196.31l5.846,13.628A55.78,55.78,0,0,1,265.768,224Zm19.536,16a55.77,55.77,0,0,1-3.92,14.057L256,267.69l-5.846-13.628A55.78,55.78,0,0,1,246.232,240Zm10.787,20.357A71.817,71.817,0,0,0,281.883,240H295.2a40.145,40.145,0,0,1-21.956,28.089Zm-3.316-64.446A40.143,40.143,0,0,1,295.2,224H281.883a71.835,71.835,0,0,0-5.33-20.363Zm37.489,24.243a56,56,0,0,0-110.439,6.137l-39.866,14.5a95.952,95.952,0,0,1,186.608-37.135ZM336,440v16H176l-.007-16H336Zm-28.687-17.372L308.687,424H203.313l1.374-1.372A65.446,65.446,0,0,0,223.522,384h64.956A65.446,65.446,0,0,0,307.313,422.628ZM46,368a14.015,14.015,0,0,1-14-14V336H208.729a112.479,112.479,0,0,0,99.2-2.146L341.07,368Zm275.865-42.764a112.181,112.181,0,0,0,22.963-22.282l39.8,41.013-22.961,22.28Zm50.942,52.493,22.96-22.28,11.142,11.482L383.95,389.21Zm78.672,35.133a15.995,15.995,0,1,1-22.958,22.277l-33.428-34.446,22.959-22.279ZM480,354a14.015,14.015,0,0,1-14,14H430.241l-31.052-32H480Zm0-34H383.663l-29.8-30.712a112.479,112.479,0,0,0,12.091-76.66l20.814-9.461a23.965,23.965,0,0,0,37.878,6.1L480,236.944ZM400,192a8,8,0,1,1,8,8A8.009,8.009,0,0,1,400,192Zm80,27.056-48.189-24.095a23.995,23.995,0,0,0-47.182-8.4L361.664,197a111.121,111.121,0,0,0-19.441-34.132L354.951,152H464V136h-8V96a8,8,0,0,0-8-8H424V80a8,8,0,0,0-8-8H384a8,8,0,0,0-8,8v24H352a8,8,0,0,0-8,8v28.311l-12.895,11.011a112.013,112.013,0,0,0-170.023,24L124.116,153.14A8.009,8.009,0,0,0,120,152H56v16h61.784l35.83,21.5a112.578,112.578,0,0,0-8.778,56.957l-19.277,7.01a23.968,23.968,0,0,0-35.606-8.908L32,218.8V70A14.015,14.015,0,0,1,46,56H466a14.015,14.015,0,0,1,14,14ZM360,136V120h16v16Zm32,0V88h16v48Zm32,0V104h16v32Z"></path><rect x="56" y="88" width="24" height="16"></rect><rect x="96" y="88" width="40" height="16"></rect><rect x="56" y="120" width="48" height="16"></rect><rect x="120" y="120" width="16" height="16"></rect><rect x="400" y="256" width="16" height="16"></rect><rect x="432" y="256" width="32" height="16"></rect><rect x="416" y="288" width="48" height="16"></rect></g></svg>