<svg xmlns="http://www.w3.org/2000/svg" height="512pt" viewBox="0 -14 512.001 512" width="512pt"><path d="m268.148438 179.585938h-24.296876c-3.777343 0-7.296874 2.03125-9.1875 5.304687l-12.148437 21.039063c-1.890625 3.273437-1.890625 7.339843 0 10.613281l12.148437 21.039062c1.890626 3.273438 5.410157 5.304688 9.1875 5.304688h24.292969c3.78125 0 7.304688-2.035157 9.191407-5.304688l12.148437-21.042969c1.886719-3.269531 1.886719-7.332031 0-10.601562v-.003906l-12.148437-21.039063c-1.886719-3.273437-5.410157-5.308593-9.1875-5.308593zm-2.535157 48.300781h-19.226562l-9.613281-16.652344 9.613281-16.648437h19.226562l9.613281 16.648437zm0 0"></path><path d="m358.296875 186.925781h-16.03125c-1.910156-6.789062-4.625-13.328125-8.085937-19.492187l11.34375-11.339844c4.78125-4.785156 4.785156-12.527344 0-17.308594l-17.070313-17.074218c-4.785156-4.78125-12.527344-4.785157-17.308594 0l-11.34375 11.34375c-6.160156-3.460938-12.703125-6.171876-19.492187-8.082032v-16.035156c0-6.746094-5.488282-12.238281-12.234375-12.238281h-24.148438c-6.746093 0-12.238281 5.492187-12.238281 12.238281v16.035156c-6.789062 1.910156-13.328125 4.621094-19.488281 8.082032l-11.34375-11.34375c-4.78125-4.785157-12.527344-4.785157-17.308594 0l-17.074219 17.074218c-4.769531 4.769532-4.769531 12.535156 0 17.304688l11.347656 11.34375c-3.460937 6.164062-6.175781 12.703125-8.085937 19.492187h-16.03125c-6.75 0-12.238281 5.488281-12.238281 12.238281v24.144532c0 6.746094 5.488281 12.238281 12.238281 12.238281h16.03125c1.910156 6.785156 4.625 13.324219 8.085937 19.488281l-11.347656 11.347656c-4.769531 4.769532-4.769531 12.535157 0 17.304688l17.074219 17.074219c4.78125 4.785156 12.527344 4.78125 17.308594 0l11.34375-11.34375c6.160156 3.460937 12.699219 6.171875 19.488281 8.082031v16.035156c0 6.746094 5.492188 12.234375 12.238281 12.234375h24.148438c6.746093 0 12.234375-5.488281 12.234375-12.234375v-16.035156c6.789062-1.910156 13.328125-4.621094 19.492187-8.082031l11.34375 11.339843c4.78125 4.789063 12.523438 4.789063 17.308594.003907l17.070313-17.070313c4.785156-4.785156 4.785156-12.527344 0-17.308594l-11.34375-11.34375c3.460937-6.167968 6.175781-12.707031 8.085937-19.492187h16.03125c6.75 0 12.238281-5.492187 12.238281-12.238281v-24.144532c0-6.75-5.488281-12.238281-12.238281-12.238281zm-2.761719 33.621094h-15.394531c-5.589844 0-10.46875 3.800781-11.863281 9.246094-1.742188 6.8125-4.453125 13.34375-8.050782 19.417969-2.867187 4.835937-2.105468 10.976562 1.847657 14.9375l10.890625 10.886718-13.164063 13.167969-10.890625-10.890625c-3.957031-3.957031-10.097656-4.714844-14.9375-1.847656-6.070312 3.597656-12.605468 6.308594-19.414062 8.050781-5.445313 1.390625-9.25 6.269531-9.25 11.863281v15.394532h-18.617188v-15.394532c0-5.59375-3.804687-10.472656-9.25-11.863281-6.8125-1.746094-13.34375-4.453125-19.414062-8.050781-4.839844-2.867188-10.980469-2.109375-14.9375 1.847656l-10.890625 10.890625-13.164063-13.167969 10.890625-10.890625c3.953125-3.957031 4.714844-10.09375 1.847657-14.933593-3.597657-6.074219-6.308594-12.605469-8.050782-19.417969-1.394531-5.441407-6.273437-9.246094-11.867187-9.246094h-15.390625v-18.621094h15.390625c5.59375 0 10.472656-3.800781 11.867187-9.246093 1.742188-6.8125 4.453125-13.34375 8.050782-19.417969 2.867187-4.839844 2.105468-10.980469-1.847657-14.933594l-10.890625-10.890625 13.164063-13.164062 10.890625 10.890624c3.957031 3.953126 10.101562 4.710938 14.9375 1.84375 6.066406-3.59375 12.601562-6.304687 19.414062-8.050781 5.445313-1.390625 9.25-6.269531 9.25-11.863281v-15.390625h18.617188v15.390625c0 5.589844 3.804687 10.46875 9.246094 11.863281 6.816406 1.746094 13.351562 4.457031 19.417968 8.050781 4.835938 2.871094 10.980469 2.109376 14.933594-1.84375l10.894531-10.890624 13.164063 13.164062-10.890625 10.890625c-3.953125 3.957031-4.714844 10.097656-1.847657 14.9375 3.597657 6.070313 6.308594 12.601563 8.050782 19.414063 1.394531 5.445312 6.273437 9.246093 11.863281 9.246093h15.394531zm0 0"></path><path d="m256 152.269531c-32.515625 0-58.96875 26.453125-58.96875 58.964844 0 32.515625 26.453125 58.96875 58.96875 58.96875s58.96875-26.453125 58.96875-58.96875c0-32.511719-26.453125-58.964844-58.96875-58.964844zm0 102.933594c-24.242188 0-43.96875-19.722656-43.96875-43.96875 0-24.242187 19.726562-43.964844 43.96875-43.964844s43.964844 19.722657 43.964844 43.964844c0 24.246094-19.722656 43.96875-43.964844 43.96875zm0 0"></path><path d="m44.730469 34.359375c-5.71875 0-10.371094 4.652344-10.371094 10.371094v297.972656c0 5.71875 4.652344 10.371094 10.371094 10.371094h422.542969c5.71875 0 10.367187-4.652344 10.367187-10.371094 0-12.621094 0-285.324219 0-297.972656 0-5.71875-4.648437-10.371094-10.367187-10.371094-3.886719 0-418.804688 0-422.542969 0zm417.910156 34.355469h-378.925781v-19.355469h378.925781zm-413.28125-19.355469h19.355469v19.355469h-19.355469zm0 288.710937v-254.355468h413.28125v254.355468zm0 0"></path><path d="m467.269531 0h-422.539062c-24.667969 0-44.730469 20.066406-44.730469 44.726562v297.976563c0 24.664063 20.0625 44.726563 44.730469 44.726563h186.589843v46.863281h-80.265624c-13.332032 0-24.175782 10.84375-24.175782 24.175781v1.011719c0 13.328125 10.84375 24.171875 24.175782 24.171875h87.859374c4.144532 0 7.5-3.355469 7.5-7.5 0-4.140625-3.355468-7.5-7.5-7.5h-87.859374c-5.058594 0-9.175782-4.113282-9.175782-9.171875v-1.011719c0-5.058594 4.117188-9.171875 9.175782-9.171875h209.890624c5.058594 0 9.175782 4.113281 9.175782 9.171875v1.011719c0 5.058593-4.117188 9.171875-9.175782 9.171875h-87.027343c-4.144531 0-7.5 3.359375-7.5 7.5 0 4.144531 3.355469 7.5 7.5 7.5h87.027343c13.332032 0 24.175782-10.84375 24.175782-24.171875v-1.011719c0-13.332031-10.84375-24.175781-24.175782-24.175781h-80.265624v-46.863281h186.589843c24.664063 0 44.730469-20.0625 44.730469-44.726563v-113.964844c0-4.144531-3.355469-7.5-7.5-7.5s-7.5 3.355469-7.5 7.5v113.964844c0 16.390625-13.335938 29.726563-29.730469 29.726563-8.410156 0-419.984375 0-422.542969 0-16.390624 0-29.726562-13.335938-29.726562-29.726563v-297.976563c0-16.390624 13.335938-29.726562 29.730469-29.726562h422.542969c16.390624 0 29.726562 13.335938 29.726562 29.726562v149.007813c0 4.144531 3.355469 7.5 7.5 7.5s7.5-3.355469 7.5-7.5v-149.007813c0-24.660156-20.066406-44.726562-44.730469-44.726562zm-201.589843 387.429688v46.863281h-19.359376v-46.863281zm0 0"></path></svg>