<svg xmlns="http://www.w3.org/2000/svg" id="Layer_5" height="512" viewBox="0 0 64 64" width="512"><path d="m50 43c-3.86 0-7 3.141-7 7s3.14 7 7 7 7-3.141 7-7-3.14-7-7-7zm0 12c-2.757 0-5-2.243-5-5s2.243-5 5-5 5 2.243 5 5-2.243 5-5 5z"></path><path d="m50 47c-1.654 0-3 1.346-3 3s1.346 3 3 3 3-1.346 3-3-1.346-3-3-3zm0 4c-.551 0-1-.448-1-1s.449-1 1-1 1 .448 1 1-.449 1-1 1z"></path><path d="m63 46.219-2.416-.603 1.281-2.136-5.347-5.346-2.134 1.281-.603-2.415h-2.781v-22c0-3.86-3.14-7-7-7h-4.069c-.495-3.94-3.859-7-7.931-7s-7.436 3.06-7.931 7h-4.069c-3.86 0-7 3.14-7 7v18.055c-2.34.218-4.569 1.166-6.335 2.748-2.329 2.085-3.665 5.073-3.665 8.197 0 3.466 1.59 6.659 4.362 8.761.183.139.325.31.432.497-1.054.465-1.794 1.517-1.794 2.742 0 1.333.88 2.453 2.085 2.842.403 2.356 2.447 4.158 4.915 4.158h2c2.468 0 4.512-1.802 4.915-4.158 1.205-.389 2.085-1.509 2.085-2.842 0-1.224-.739-2.276-1.793-2.742.109-.19.254-.364.441-.506 3.066-2.329 4.673-6.013 4.297-9.854-.501-5.13-4.579-9.264-9.695-9.829-.084-.009-.167-.007-.25-.014v-18.055c0-2.757 2.243-5 5-5h4.069c.296 2.361 1.621 4.406 3.516 5.665-6.123 1.89-10.585 7.6-10.585 14.335v1h30v-1c0-6.735-4.462-12.445-10.585-14.335 1.895-1.259 3.219-3.304 3.516-5.665h4.069c2.757 0 5 2.243 5 5v22h-2.781l-.603 2.416-2.134-1.281-5.347 5.346 1.281 2.136-2.416.602v7.562l2.416.603-1.281 2.136 4.6 4.6 2.821-.778.663 2.658h7.562l.664-2.659 2.821.778 4.6-4.6-1.281-2.136 2.415-.602zm-48 14.781h-2c-1.302 0-2.402-.839-2.816-2h7.631c-.413 1.161-1.513 2-2.815 2zm4-4h-10c-.551 0-1-.448-1-1s.449-1 1-1h10c.551 0 1 .448 1 1s-.449 1-1 1zm-6-13c0-.552.449-1 1-1s1 .448 1 1-.449 1-1 1-1-.448-1-1zm9.956-.906c.307 3.145-1.007 6.159-3.518 8.066-.63.479-1.058 1.125-1.273 1.84h-3.165v-6.184c1.161-.414 2-1.514 2-2.816 0-1.654-1.346-3-3-3s-3 1.346-3 3c0 1.302.839 2.402 2 2.816v6.184h-3.163c-.214-.714-.64-1.358-1.267-1.833-2.269-1.72-3.57-4.332-3.57-7.167 0-2.556 1.093-5.001 2.999-6.707 1.932-1.729 4.43-2.524 7.032-2.235 4.182.462 7.515 3.841 7.925 8.036zm9.408-26.076 1.395 7.888-1.759 3.079-1.759-3.079 1.395-7.888c.122-.004.241-.018.364-.018s.242.014.364.018zm2.946 5.173-.877-4.96c1.097.209 2.141.564 3.122 1.03zm-8.866-3.929c.982-.467 2.025-.822 3.122-1.03l-.877 4.96zm-1.735.994 5.568 9.744h-6.277v-4h-2v4h-2.962c.31-4.051 2.491-7.578 5.671-9.744zm20.253 9.744h-2.962v-4h-2v4h-6.277l5.568-9.744c3.18 2.166 5.361 5.693 5.671 9.744zm-12.962-14c-3.309 0-6-2.691-6-6s2.691-6 6-6 6 2.691 6 6-2.691 6-6 6zm29 37.219-1.949.487-.534.205-.466 1.139 1.296 2.159-2.672 2.672-2.772-.765-1.072.432-.612 2.452h-4.438l-.487-1.949-.203-.535-.994-.399-2.772.765-2.672-2.672 1.296-2.159-.5-1.22-2.449-.612v-4.438l2.446-.611.503-1.22-1.296-2.159 3.138-3.139 2.158 1.296 1.22-.496.612-2.452h4.438l.487 1.949.203.535 1.142.464 2.158-1.296 3.138 3.139-1.296 2.159.503 1.22 2.446.611z"></path><path d="m54 7c1.654 0 3-1.346 3-3s-1.346-3-3-3c-1.302 0-2.402.839-2.816 2h-5.184v2h5.184c.414 1.161 1.514 2 2.816 2zm0-4c.551 0 1 .449 1 1s-.449 1-1 1-1-.449-1-1 .449-1 1-1z"></path><path d="m42 3h2v2h-2z"></path><path d="m10 7c1.302 0 2.402-.839 2.816-2h5.184v-2h-5.184c-.414-1.161-1.514-2-2.816-2-1.654 0-3 1.346-3 3s1.346 3 3 3zm0-4c.551 0 1 .449 1 1s-.449 1-1 1-1-.449-1-1 .449-1 1-1z"></path><path d="m20 3h2v2h-2z"></path></svg>